<mxfile host="app.diagrams.net" agent="Mozilla/5.0 (Windows NT 10.0; Win64; x64) AppleWebKit/537.36 (KHTML, like Gecko) Chrome/131.0.0.0 Safari/537.36" version="26.0.9">
  <diagram name="Page-1" id="9ATyoNoLPIfWOJnZ1qPF">
    <mxGraphModel dx="1877" dy="557" grid="1" gridSize="10" guides="1" tooltips="1" connect="1" arrows="1" fold="1" page="1" pageScale="1" pageWidth="827" pageHeight="1169" math="0" shadow="0">
      <root>
        <mxCell id="0" />
        <mxCell id="1" parent="0" />
        <mxCell id="91Qdzsh7UqTkiSh11w_M-16" value="&lt;font style=&quot;font-size: 15px;&quot;&gt;ลูกค้า&lt;/font&gt;" style="rounded=1;whiteSpace=wrap;html=1;" parent="1" vertex="1">
          <mxGeometry x="-50" y="260" width="120" height="60" as="geometry" />
        </mxCell>
        <mxCell id="91Qdzsh7UqTkiSh11w_M-17" value="&lt;font style=&quot;font-size: 15px;&quot;&gt;ผู้ดูแลระบบ&lt;/font&gt;" style="rounded=1;whiteSpace=wrap;html=1;" parent="1" vertex="1">
          <mxGeometry x="750" y="260" width="120" height="60" as="geometry" />
        </mxCell>
        <mxCell id="91Qdzsh7UqTkiSh11w_M-28" value="0" style="swimlane;whiteSpace=wrap;html=1;startSize=23;" parent="1" vertex="1">
          <mxGeometry x="313.5" y="225" width="200" height="130" as="geometry" />
        </mxCell>
        <mxCell id="91Qdzsh7UqTkiSh11w_M-29" value="&lt;font style=&quot;font-size: 15px;&quot;&gt;ระบบส่งเสริมการขายสำหรับร้านดีวารี&lt;/font&gt;" style="rounded=0;whiteSpace=wrap;html=1;" parent="91Qdzsh7UqTkiSh11w_M-28" vertex="1">
          <mxGeometry y="20" width="200" height="110" as="geometry" />
        </mxCell>
        <mxCell id="91Qdzsh7UqTkiSh11w_M-32" value="" style="endArrow=classic;html=1;rounded=0;entryX=0.408;entryY=0.012;entryDx=0;entryDy=0;exitX=0.5;exitY=0;exitDx=0;exitDy=0;entryPerimeter=0;" parent="1" source="91Qdzsh7UqTkiSh11w_M-16" edge="1" target="91Qdzsh7UqTkiSh11w_M-28">
          <mxGeometry width="50" height="50" relative="1" as="geometry">
            <mxPoint x="120" y="280.5" as="sourcePoint" />
            <mxPoint x="313.5" y="280" as="targetPoint" />
            <Array as="points">
              <mxPoint x="10" y="100" />
              <mxPoint x="395" y="100" />
            </Array>
          </mxGeometry>
        </mxCell>
        <mxCell id="91Qdzsh7UqTkiSh11w_M-33" value="" style="endArrow=classic;html=1;rounded=0;exitX=0.4;exitY=0.996;exitDx=0;exitDy=0;exitPerimeter=0;entryX=0.5;entryY=1;entryDx=0;entryDy=0;" parent="1" source="91Qdzsh7UqTkiSh11w_M-29" target="91Qdzsh7UqTkiSh11w_M-16" edge="1">
          <mxGeometry width="50" height="50" relative="1" as="geometry">
            <mxPoint x="312.78" y="300" as="sourcePoint" />
            <mxPoint x="80" y="300" as="targetPoint" />
            <Array as="points">
              <mxPoint x="394" y="490" />
              <mxPoint x="10" y="490" />
            </Array>
          </mxGeometry>
        </mxCell>
        <mxCell id="91Qdzsh7UqTkiSh11w_M-34" value="" style="endArrow=classic;html=1;rounded=0;entryX=0.5;entryY=0;entryDx=0;entryDy=0;exitX=0.644;exitY=0;exitDx=0;exitDy=0;exitPerimeter=0;" parent="1" target="91Qdzsh7UqTkiSh11w_M-17" edge="1" source="91Qdzsh7UqTkiSh11w_M-28">
          <mxGeometry width="50" height="50" relative="1" as="geometry">
            <mxPoint x="513.5" y="282.5" as="sourcePoint" />
            <mxPoint x="707" y="282" as="targetPoint" />
            <Array as="points">
              <mxPoint x="442" y="100" />
              <mxPoint x="810" y="100" />
            </Array>
          </mxGeometry>
        </mxCell>
        <mxCell id="91Qdzsh7UqTkiSh11w_M-35" value="" style="endArrow=classic;html=1;rounded=0;exitX=0.5;exitY=1;exitDx=0;exitDy=0;entryX=0.66;entryY=0.993;entryDx=0;entryDy=0;entryPerimeter=0;" parent="1" source="91Qdzsh7UqTkiSh11w_M-17" edge="1" target="91Qdzsh7UqTkiSh11w_M-29">
          <mxGeometry width="50" height="50" relative="1" as="geometry">
            <mxPoint x="707.5" y="297" as="sourcePoint" />
            <mxPoint x="520" y="300" as="targetPoint" />
            <Array as="points">
              <mxPoint x="810" y="490" />
              <mxPoint x="446" y="490" />
            </Array>
          </mxGeometry>
        </mxCell>
        <mxCell id="91Qdzsh7UqTkiSh11w_M-36" value="&lt;ul&gt;&lt;li&gt;&lt;font style=&quot;font-size: 15px;&quot;&gt;ข้อมูลลูกค้า&lt;/font&gt;&lt;/li&gt;&lt;li&gt;&lt;font style=&quot;font-size: 15px;&quot;&gt;ข้อมูลพนักงาน&lt;/font&gt;&lt;/li&gt;&lt;li&gt;&lt;font style=&quot;font-size: 15px;&quot;&gt;ข้อมูลบริการ&lt;/font&gt;&lt;/li&gt;&lt;li&gt;&lt;font style=&quot;font-size: 15px;&quot;&gt;ข้อมูลคอร์ส&lt;/font&gt;&lt;/li&gt;&lt;li&gt;&lt;font style=&quot;font-size: 15px;&quot;&gt;ข้อมูลการจอง&lt;/font&gt;&lt;/li&gt;&lt;/ul&gt;" style="text;html=1;align=left;verticalAlign=middle;whiteSpace=wrap;rounded=0;" parent="1" vertex="1">
          <mxGeometry x="660" y="390" width="160" height="80" as="geometry" />
        </mxCell>
        <mxCell id="91Qdzsh7UqTkiSh11w_M-37" value="&lt;ul&gt;&lt;li&gt;&lt;font style=&quot;font-size: 15px;&quot;&gt;รายงานข้อมูลลูกค้า&lt;/font&gt;&lt;/li&gt;&lt;li&gt;&lt;font style=&quot;font-size: 15px;&quot;&gt;รายงานข้อมูลพนักงาน&lt;/font&gt;&lt;/li&gt;&lt;li&gt;&lt;font style=&quot;font-size: 15px;&quot;&gt;รายงานข้อมูลบริการ&lt;/font&gt;&lt;/li&gt;&lt;li&gt;&lt;font style=&quot;font-size: 15px;&quot;&gt;รายงานข้อมูลคอร์ส&lt;/font&gt;&lt;/li&gt;&lt;li&gt;&lt;font style=&quot;font-size: 15px;&quot;&gt;รายงานข้อมูลการจอง&lt;/font&gt;&lt;/li&gt;&lt;/ul&gt;" style="text;html=1;align=left;verticalAlign=middle;whiteSpace=wrap;rounded=0;" parent="1" vertex="1">
          <mxGeometry x="620" y="120" width="240" height="80" as="geometry" />
        </mxCell>
        <mxCell id="91Qdzsh7UqTkiSh11w_M-38" value="&lt;ul&gt;&lt;li&gt;&lt;font style=&quot;font-size: 15px;&quot;&gt;ข้อมูลการสมัครสมาชิก&lt;/font&gt;&lt;/li&gt;&lt;li&gt;&lt;font style=&quot;font-size: 15px;&quot;&gt;ข้อมูลการจอง&lt;/font&gt;&lt;/li&gt;&lt;li&gt;&lt;font style=&quot;font-size: 15px;&quot;&gt;ข้อมูลการใช้บริการ&lt;/font&gt;&lt;/li&gt;&lt;li&gt;&lt;font style=&quot;font-size: 15px;&quot;&gt;ข้อมูลการชำระเงิน&lt;/font&gt;&lt;/li&gt;&lt;/ul&gt;" style="text;html=1;align=left;verticalAlign=middle;whiteSpace=wrap;rounded=0;" parent="1" vertex="1">
          <mxGeometry y="100" width="250" height="110" as="geometry" />
        </mxCell>
        <mxCell id="91Qdzsh7UqTkiSh11w_M-39" value="&lt;ul&gt;&lt;li&gt;&lt;font style=&quot;font-size: 15px;&quot;&gt;รายงานข้อมูลการสมัครสมาชิก&lt;/font&gt;&lt;/li&gt;&lt;li&gt;&lt;font style=&quot;font-size: 15px;&quot;&gt;รายงานข้อมูลการจอง&lt;/font&gt;&lt;/li&gt;&lt;li&gt;&lt;font style=&quot;font-size: 15px;&quot;&gt;รายงานข้อมูลการใช้บริการ&lt;/font&gt;&lt;/li&gt;&lt;li&gt;&lt;font style=&quot;font-size: 15px;&quot;&gt;รายงานข้อมูลการชำระเงิน&lt;/font&gt;&lt;/li&gt;&lt;/ul&gt;" style="text;html=1;align=left;verticalAlign=middle;whiteSpace=wrap;rounded=0;" parent="1" vertex="1">
          <mxGeometry y="390" width="240" height="80" as="geometry" />
        </mxCell>
      </root>
    </mxGraphModel>
  </diagram>
</mxfile>
